<svg width="23" height="23" viewBox="0 0 23 23" fill="none" xmlns="http://www.w3.org/2000/svg">
<path d="M16.5 2.75C16.7626 2.48735 17.0744 2.27901 17.4176 2.13687C17.7608 1.99473 18.1286 1.92157 18.5 1.92157C18.8714 1.92157 19.2392 1.99473 19.5824 2.13687C19.9256 2.27901 20.2374 2.48735 20.5 2.75C20.7626 3.01264 20.971 3.32444 21.1131 3.6676C21.2553 4.01077 21.3284 4.37856 21.3284 4.75C21.3284 5.12143 21.2553 5.48923 21.1131 5.83239C20.971 6.17555 20.7626 6.48735 20.5 6.75L7 20.25L1.5 21.75L3 16.25L16.5 2.75Z" stroke="white" stroke-width="2" stroke-linecap="round" stroke-linejoin="round"/>
</svg>
